<svg viewBox="0 0 50 46" xmlns="http://www.w3.org/2000/svg" fill-rule="evenodd" clip-rule="evenodd" stroke-linejoin="round" stroke-miterlimit="1.41">
  <path fill="none" d="M0 0h49.77v45.37H0z"/>
  <g fill-rule="nonzero">
    <path d="M24.9 23.97c-.32 0-.63 0-.93-.03-.14 2.32-.6 4.54-1.35 6.64.75.07 1.5.1 2.27.1 12.35 0 22.42-9.86 22.76-22.16-2.6.34-5.02 1.32-7.07 2.78-1.58 7.23-8 12.67-15.7 12.67" fill="#ef3c23"/>
    <path d="M26.96 22.6v.05c2.28-.32 4.38-1.15 6.2-2.38 1.66-6.84 7.4-12.07 14.52-12.94-.06-2.56-.54-5.02-1.38-7.3C35.35 1.7 26.96 11.17 26.96 22.6" fill="#981936"/>
    <path d="M49.77 41.37c-7.35 0-13.62-4.65-16.03-11.17-1.57.63-3.2 1.1-4.92 1.37 3.5 8.12 11.56 13.8 20.95 13.8v-4z" fill="#f8981c"/>
    <path d="M0 45.37c12.6 0 22.8-10.22 22.8-22.8 0-8.63-4.77-16.13-11.8-20-.65 1.65-1 3.44-1 5.32 0 .9.08 1.8.24 2.7 4.16 3.1 6.85 8.06 6.85 13.66 0 9.44-7.68 17.1-17.1 17.1v4z" fill="#0a679b"/>
    <path d="M15.3 28.58c.38-1.37.6-2.82.6-4.3 0-1.14-.13-2.25-.36-3.3-4.08-2.93-6.74-7.7-6.74-13.1 0-2.07.4-4.06 1.12-5.88-2-.97-4.17-1.65-6.44-2-.9 2.46-1.4 5.1-1.4 7.88 0 9.17 5.4 17.07 13.22 20.7" fill="#179b48"/>
  </g>
</svg>

